<?xml version="1.0" ?><svg data-name="Layer 1" id="Layer_1" viewBox="0 0 150 150" xmlns="http://www.w3.org/2000/svg"><defs><style>.cls-1{fill:#13818d;}.cls-2{fill:#fff;}.cls-3{fill:#44c2c7;}</style></defs><title/><circle class="cls-1" cx="75" cy="75" r="65"/><circle class="cls-2" cx="75" cy="75" r="45.32"/><path class="cls-3" d="M75,112.34A37.34,37.34,0,1,1,112.34,75,37.38,37.38,0,0,1,75,112.34Zm0-73.5A36.16,36.16,0,1,0,111.16,75,36.2,36.2,0,0,0,75,38.84Z"/><path class="cls-1" d="M72.69,46.78a0.54,0.54,0,0,0-.54.55v9.59h0v0.21a1,1,0,1,1-2,0V56.92h0V47.29a0.54,0.54,0,1,0-1.09,0l0,9.84a1,1,0,1,1-2,0l0-9.84a0.54,0.54,0,1,0-1.09,0v9.84a1,1,0,1,1-2,0V56.92h0V47.29a0.54,0.54,0,1,0-1.09,0v9.63h0v6.62a5.17,5.17,0,0,0,3.73,5,65.93,65.93,0,0,1,.16,8.15c-0.25,6-1,13.7-.95,17.3,0.06,2.53.79,10.1,0.79,10.1a1.46,1.46,0,0,0,2.92,0s0.73-7.65.79-10.21c0.08-3.64-.71-11.41-1-17.44a66,66,0,0,1,.17-8.11,4.93,4.93,0,0,0,3.73-4.75V58.4h0V47.33A0.55,0.55,0,0,0,72.69,46.78Z"/><path class="cls-1" d="M79.19,65.23a24.88,24.88,0,0,0,4.32,13.49s0,5.87,0,7.39c-0.1,4.46-.79,17.83-0.79,17.83a2.93,2.93,0,0,0,2.19,1.19,2.87,2.87,0,0,0,2.25-1.19s-0.51-13.31-.61-17.75c-0.23-10.42-.18-41.69-0.18-41.69S79.19,51.63,79.19,65.23Z"/></svg>